<?xml version="1.0" encoding="UTF-8"?>
<!DOCTYPE svg PUBLIC "-//W3C//DTD SVG 1.1//EN" "http://www.w3.org/Graphics/SVG/1.1/DTD/svg11.dtd">
<!-- Creator: CorelDRAW -->
<svg xmlns="http://www.w3.org/2000/svg" xml:space="preserve" width="870.87mm" height="489.204mm" version="1.1" style="shape-rendering:geometricPrecision; text-rendering:geometricPrecision; image-rendering:optimizeQuality; fill-rule:evenodd; clip-rule:evenodd"
viewBox="0 0 8867.55 4981.27"
 xmlns:xlink="http://www.w3.org/1999/xlink"
 xmlns:xodm="http://www.corel.com/coreldraw/odm/2003">
 <defs>
  <style type="text/css">
   <![CDATA[
    .fil2 {fill:#FFED00}
    .fil0 {fill:#E31E24}
    .fil3 {fill:#009846}
    .fil4 {fill:#2B2A29;fill-rule:nonzero}
    .fil1 {fill:#2B2A29;fill-rule:nonzero}
   ]]>
  </style>
 </defs>
 <g id="Layer_x0020_1">
  <metadata id="CorelCorpID_0Corel-Layer"/>
  <g id="_2488957876032">
   <polygon class="fil0" points="2225.49,778.93 3194.83,778.93 3679.51,1618.4 3194.83,2457.88 2225.49,2457.88 1740.81,1618.4 "/>
   <path class="fil1" d="M2225.49 698.97l969.35 0 45.76 0 23.26 40.29 484.67 839.48 22.9 39.67 -22.9 39.67 -484.67 839.48 -23.26 40.29 -45.76 0 -969.35 0 -45.76 0 -23.26 -40.29 -484.67 -839.48 -22.9 -39.67 22.9 -39.67 484.67 -839.48 23.26 -40.29 45.76 0zm923.58 159.91l-877.82 0 -438.51 759.52 438.51 759.52 877.82 0 438.51 -759.52 -438.51 -759.52z"/>
   <polygon class="fil2" points="771.47,1618.4 1740.81,1618.4 2225.49,2457.88 1740.81,3297.36 771.47,3297.36 286.8,2457.88 "/>
   <path class="fil1" d="M771.47 1538.45l969.35 0 45.76 0 23.26 40.29 484.67 839.48 22.9 39.66 -22.9 39.67 -484.67 839.48 -23.26 40.29 -45.76 0 -969.35 0 -45.76 0 -23.26 -40.29 -484.67 -839.48 -22.9 -39.67 22.9 -39.66 484.67 -839.48 23.26 -40.29 45.76 0zm923.58 159.91l-877.82 0 -438.51 759.52 438.51 759.52 877.82 0 438.51 -759.52 -438.51 -759.52z"/>
   <polygon class="fil3" points="2225.49,2457.88 3194.83,2457.88 3679.51,3297.36 3194.83,4136.84 2225.49,4136.84 1740.81,3297.36 "/>
   <path class="fil1" d="M2225.49 2377.92l969.35 0 45.76 0 23.26 40.29 484.67 839.48 22.9 39.67 -22.9 39.67 -484.67 839.48 -23.26 40.29 -45.76 0 -969.35 0 -45.76 0 -23.26 -40.29 -484.67 -839.48 -22.9 -39.67 22.9 -39.67 484.67 -839.48 23.26 -40.29 45.76 0zm923.58 159.91l-877.82 0 -438.51 759.52 438.51 759.52 877.82 0 438.51 -759.52 -438.51 -759.52z"/>
   <path class="fil1" d="M3161.23 372.33c29.34,0 55.89,-11.89 75.11,-31.1 19.22,-19.22 31.1,-45.77 31.1,-75.11 0,-29.34 -11.89,-55.89 -31.1,-75.11 -19.22,-19.22 -45.77,-31.1 -75.11,-31.1 -29.34,0 -55.89,11.89 -75.11,31.1 -19.21,19.21 -31.1,45.77 -31.1,75.11 0,29.34 11.89,55.89 31.1,75.11 19.22,19.22 45.77,31.1 75.11,31.1zm-79.96 451.39l0 -303.71c-41.33,-13.01 -78.31,-35.82 -108.22,-65.72 -48.16,-48.16 -77.95,-114.69 -77.95,-188.17 0,-73.48 29.79,-140.01 77.95,-188.17 48.16,-48.16 114.69,-77.95 188.17,-77.95 73.48,0 140.01,29.79 188.17,77.95 48.16,48.16 77.95,114.69 77.95,188.17 0,73.48 -29.79,140.01 -77.95,188.17 -29.9,29.9 -66.89,52.72 -108.21,65.72l0 303.71 -159.91 0z"/>
   <polygon class="fil1" points="1547.72,3561.32 1883.34,4142.63 1745.29,4221.96 1409.67,3640.65 "/>
   <path class="fil1" d="M4049.2 1533.82c14.9,-61.93 46.73,-117.28 90.32,-160.87 61.64,-61.64 146.78,-99.76 240.83,-99.76 94.04,0 179.19,38.12 240.83,99.76 61.64,61.64 99.76,146.79 99.76,240.83 0,94.04 -38.12,179.19 -99.76,240.83 -61.64,61.64 -146.79,99.76 -240.83,99.76 -94.04,0 -179.19,-38.12 -240.83,-99.76 -43.59,-43.59 -75.41,-98.94 -90.32,-160.87l-378.33 0 0 -159.91 378.33 0zm203.38 -47.81c-32.69,32.69 -52.91,77.86 -52.91,127.76 0,49.9 20.22,95.07 52.91,127.76 32.69,32.69 77.86,52.91 127.76,52.91 49.9,0 95.07,-20.22 127.76,-52.91 32.69,-32.69 52.91,-77.86 52.91,-127.76 0,-49.9 -20.22,-95.07 -52.91,-127.76 -32.69,-32.69 -77.86,-52.91 -127.76,-52.91 -49.9,0 -95.07,20.22 -127.76,52.91z"/>
   <path class="fil1" d="M771.47 4101.74c29.34,0 55.89,-11.89 75.11,-31.1 19.22,-19.22 31.1,-45.77 31.1,-75.11 0,-29.34 -11.89,-55.89 -31.1,-75.11 -19.22,-19.22 -45.77,-31.1 -75.11,-31.1 -29.34,0 -55.89,11.89 -75.11,31.1 -19.22,19.22 -31.1,45.77 -31.1,75.11 0,29.34 11.89,55.89 31.1,75.11 19.22,19.22 45.77,31.1 75.11,31.1zm79.96 -804.38l0 444.28c41.33,13 78.31,35.82 108.21,65.72 48.16,48.16 77.95,114.69 77.95,188.17 0,73.48 -29.79,140.01 -77.95,188.17 -48.16,48.16 -114.69,77.95 -188.17,77.95 -73.48,0 -140.01,-29.79 -188.17,-77.95 -48.16,-48.16 -77.95,-114.69 -77.95,-188.17 0,-73.48 29.79,-140.01 77.95,-188.17 29.9,-29.9 66.89,-52.72 108.21,-65.72l0 -444.28 159.91 0z"/>
   <path class="fil1" d="M3194.83 4821.36c29.34,0 55.89,-11.89 75.11,-31.1 19.22,-19.22 31.1,-45.77 31.1,-75.11 0,-29.34 -11.89,-55.89 -31.1,-75.11 -19.22,-19.22 -45.77,-31.1 -75.11,-31.1 -29.34,0 -55.89,11.89 -75.11,31.1 -19.22,19.22 -31.1,45.77 -31.1,75.11 0,29.34 11.89,55.89 31.1,75.11 19.22,19.22 45.77,31.1 75.11,31.1zm79.96 -684.52l0 324.42c41.33,13.01 78.31,35.82 108.21,65.72 48.16,48.16 77.95,114.69 77.95,188.17 0,73.48 -29.79,140.01 -77.95,188.17 -48.16,48.16 -114.69,77.95 -188.17,77.95 -73.48,0 -140.01,-29.79 -188.17,-77.95 -48.16,-48.16 -77.95,-114.69 -77.95,-188.17 0,-73.48 29.79,-140.01 77.95,-188.17 29.9,-29.9 66.89,-52.72 108.21,-65.72l0 -324.42 159.91 0z"/>
   <polygon class="fil1" points="3600.35,674.18 3935.97,1255.5 3797.92,1334.83 3462.3,753.52 "/>
   <polygon class="fil1" points="824.87,1195.65 1496.11,1195.65 1496.11,1354.94 824.87,1354.94 "/>
   <polygon class="fil1" points="473.67,1634.46 138.05,2215.77 -0,2135.81 335.62,1554.5 "/>
   <path class="fil1" d="M4049.2 3209.56c14.9,-61.93 46.73,-117.28 90.32,-160.87 61.64,-61.64 146.78,-99.76 240.83,-99.76 94.04,0 179.19,38.12 240.83,99.76 61.64,61.64 99.76,146.78 99.76,240.83 0,94.04 -38.12,179.19 -99.76,240.83 -61.64,61.64 -146.79,99.76 -240.83,99.76 -94.04,0 -179.19,-38.12 -240.83,-99.76 -43.59,-43.59 -75.41,-98.94 -90.32,-160.87l-378.33 0 0 -159.91 378.33 0zm203.38 -47.81c-32.69,32.69 -52.91,77.86 -52.91,127.76 0,49.9 20.22,95.07 52.91,127.76 32.69,32.69 77.86,52.91 127.76,52.91 49.9,0 95.07,-20.22 127.76,-52.91 32.69,-32.69 52.91,-77.86 52.91,-127.76 0,-49.9 -20.22,-95.07 -52.91,-127.76 -32.69,-32.69 -77.86,-52.91 -127.76,-52.91 -49.9,0 -95.07,20.22 -127.76,52.91z"/>
   <path class="fil4" d="M4056.76 2077.09c-9.27,22.47 -15.87,45.1 -19.8,68.04l-0.94 5.5 0 0c94.44,6.76 168.93,31.27 223.77,73.54 64.59,49.97 96.8,121 96.8,213.24 0,92.24 -32.21,163.43 -96.8,213.4 -54.84,41.96 -129.33,66.31 -223.77,73.07l0 0 0.94 5.5c3.93,22.94 10.53,45.57 19.8,68.04l-119.9 0 -120.53 0c9.27,-22.47 15.87,-45.1 19.8,-68.04l0.94 -5.5 0 0c-94.29,-6.76 -168.93,-31.27 -223.77,-73.54 -64.59,-49.66 -96.8,-120.69 -96.8,-212.93 0,-92.24 32.37,-163.27 97.11,-213.24 54.69,-42.27 129.17,-66.79 223.46,-73.54l0 0 -0.94 -5.03c-3.93,-22.94 -10.53,-45.73 -19.8,-68.51l120.06 0 120.37 0zm94.29 360.33c0,-53.9 -14.61,-95.7 -43.84,-125.09 -19.49,-19.64 -44.79,-32.69 -75.9,-39.13l0 0 0 327.64 0 0c31.43,-6.76 56.89,-19.64 76.22,-38.97 29.07,-29.07 43.53,-70.56 43.53,-124.46zm-309.26 -164.21l0 0c-30.64,6.13 -56.26,19.33 -76.37,39.6 -28.91,29.07 -43.37,70.71 -43.37,124.62 0,53.9 14.61,95.39 43.69,124.46 19.8,19.49 45.1,32.69 76.06,39.44l0 0 0 -328.12zm978.85 537.43c-113.46,0 -206.33,-34.73 -278.62,-104.03 -72.29,-69.3 -108.43,-158.56 -108.43,-267.46 0,-109.21 36.14,-198.63 108.43,-268.09 72.29,-69.61 165.16,-104.34 278.62,-104.34 113.77,0 206.8,34.73 278.93,104.34 72.13,69.46 108.11,158.87 108.11,268.09 0,108.9 -35.99,198.16 -108.11,267.46 -72.13,69.3 -165.16,104.03 -278.93,104.03zm107.49 -140.49c21.84,-20.27 39.6,-51.07 53.27,-92.56 13.83,-41.49 20.74,-84.7 20.74,-129.49 0,-77.16 -27.03,-138.44 -80.93,-183.39 -53.9,-45.1 -123.2,-64.27 -208.06,-57.51 -21.84,20.27 -39.6,51.23 -53.27,92.87 -13.83,41.64 -20.74,85.01 -20.74,130.11 0,76.84 27.03,137.81 81.09,182.76 54.06,44.94 123.36,63.96 207.9,57.2zm407.16 -24.2l0 -417.37c0,-33.16 -1.89,-61.13 -5.81,-83.76 -3.77,-22.79 -10.37,-45.26 -19.64,-67.73l120.06 0 0 0 127.91 0c87.21,0 154.32,19.33 201.61,57.99 47.3,38.66 70.87,93.81 70.87,165.16 0,68.51 -26.09,122.73 -78.26,162.8 -52.33,40.07 -122.73,60.03 -211.52,60.03l-14.77 0 0 0 0 122.89c0,33.16 1.89,61.13 5.81,83.76 3.77,22.79 10.37,45.26 19.64,67.73l-120.37 0 -121 0c9.27,-22.47 15.87,-44.94 19.96,-67.73 3.61,-22.63 5.5,-50.6 5.5,-83.76zm190.46 -249.23l0 0 6.44 0c33.16,0 60.34,-9.59 81.56,-28.6 21.21,-19.01 31.74,-43.69 31.74,-73.86 0,-26.71 -9.9,-48.56 -29.7,-65.53 -19.8,-16.81 -45.26,-25.3 -76.37,-25.3l-13.67 0 0 0 0 193.29zm602.02 249.23c0,33.16 1.89,61.13 5.81,83.76 3.77,22.79 10.37,45.26 19.64,67.73l-120.84 0 -121.47 0c9.27,-22.47 15.87,-44.94 19.64,-67.73 3.93,-22.63 5.81,-50.6 5.81,-83.76l0 -462.94 -90.2 -105.91 136.87 0 136.87 0c0.63,15.87 2.51,28.91 5.5,38.81 3.14,10.06 8.01,19.17 14.77,27.5l179.93 227.23 0.16 0 0 0 181.19 -227.23c9.43,-11.79 16.34,-22.47 20.43,-32.53 4.09,-9.9 6.44,-21.22 7.07,-33.79l107.01 0 107.49 0c-20.59,49.34 -34.89,92.24 -43.22,128.7 -8.33,36.3 -12.41,74.17 -12.41,113.46l0 326.7c0,33.16 1.89,61.13 5.82,83.76 3.77,22.79 10.37,45.26 19.64,67.73l-120.37 0 -121 0c9.27,-22.47 15.87,-44.94 19.64,-67.73 3.93,-22.63 5.82,-50.6 5.82,-83.76l0 -265.1 0 0 -184.64 236.5 -0.31 0 -184.96 -240.59 0.31 0 0 269.19zm1047.99 0c-13.67,32.22 -23.41,59.71 -29.23,82.5 -5.66,22.63 -8.49,45.73 -8.49,68.99l-123.36 0 -123.36 0c14.77,-14.77 28.76,-33.47 42.11,-56.1 13.36,-22.79 28.76,-54.53 46.36,-95.23l25.46 -61.29 0 0 -153.06 -356.24c-11.31,-26.71 -24.2,-51.39 -38.66,-74.17 -14.46,-22.63 -33.63,-48.4 -57.51,-77.31l132.79 0 133.26 0c-1.73,17.44 -2.04,32.37 -0.79,44.79 1.1,12.57 4.24,25.3 9.11,38.5l70.56 194.23 0 0 0 0 80.77 -194.23c6.13,-14.77 10.21,-28.29 12.1,-40.7 2.04,-12.41 2.36,-26.71 1.26,-42.59l118.33 0 118.33 0c-12.89,16.19 -25.46,35.67 -37.71,58.46 -12.26,22.63 -26.87,53.74 -43.69,93.03l-174.59 417.37zm689.7 -443.46l0 0 -172.54 0 0 0 0 351.37c0.31,89.1 -19.49,154.32 -59.56,195.49 -33.47,34.41 -84.07,54.84 -151.64,61.29l0 0 -81.87 -143.79 11.47 0.47c31.59,0 54.69,-9.11 69.3,-27.19 14.61,-18.23 21.84,-46.67 21.84,-85.8l0 -325.6c0,-33.16 -1.89,-61.13 -5.81,-83.92 -3.77,-22.63 -10.37,-45.26 -19.64,-67.73l302.19 0 0 0 302.19 0c-9.27,22.47 -15.87,44.94 -19.64,67.73 -3.93,22.63 -5.81,50.6 -5.81,83.76l0 417.37c0,33.16 1.89,61.13 5.81,83.76 3.77,22.79 10.37,45.26 19.64,67.73l-120.37 0 -121 0c9.27,-22.47 15.87,-44.94 19.64,-67.73 3.93,-22.63 5.81,-50.6 5.81,-83.76l0 -443.46zm305.64 443.46l194.39 -468.92c8.8,-21.22 16.5,-41.49 22.94,-60.81 6.44,-19.33 10.06,-32.37 10.53,-39.13l80.14 0 79.99 0c0.63,6.76 4.09,19.8 10.53,39.13 6.44,19.33 14.14,39.6 23.1,60.81l194.23 468.92c16.97,39.29 31.43,70.24 43.53,93.03 12.1,22.63 24.51,42.11 37.09,58.46l-114.56 0 -115.19 0c1.26,-10.21 0.63,-21.37 -1.73,-33.79 -2.51,-12.57 -7.39,-29.07 -14.77,-49.66l-35.83 -98.53 0 0 -228.8 0 0 0 -32.37 98.53c-7.07,20.59 -11.63,37.09 -13.83,49.66 -2.04,12.41 -2.51,23.57 -1.26,33.79l-109.84 0 -109.69 0c13.2,-17.13 25.93,-37.09 38.19,-59.87 12.26,-22.63 26.71,-53.27 43.21,-91.62zm296.37 -360.33l-68.83 204.44 0 0 142.84 0 0 0 -74.17 -204.44 0.16 0z"/>
   <path class="fil4" d="M3638.44 4446.05l0 -417.37c0,-33.16 -1.89,-61.13 -5.81,-83.76 -3.77,-22.79 -10.37,-45.26 -19.64,-67.73l120.06 0 0 0 127.91 0c85.64,0 152.59,16.03 200.99,47.93 48.24,31.9 72.44,76.06 72.44,132.47 0,57.51 -23.73,101.83 -71.34,133.1 -8.64,5.81 -18.07,11 -28.6,15.71l0 0c22.47,8.17 42.11,18.23 58.93,29.86 52.49,35.83 78.73,87.21 78.73,153.69 0,66.63 -25.61,117.86 -76.84,153.69 -51.23,35.99 -124.14,53.9 -218.59,53.9l-143.63 0 0 0 -120.06 0c9.27,-22.47 15.87,-44.94 19.96,-67.73 3.61,-22.63 5.5,-50.6 5.5,-83.76zm190.46 -449.12l0 169.72 0 0 6.44 0c35.83,0 63.64,-7.7 83.13,-23.26 19.49,-15.4 29.23,-37.56 29.23,-66.47 0,-25.77 -9.27,-45.41 -27.81,-59.24 -18.7,-13.83 -44.94,-20.74 -79.04,-20.74l-11.94 0zm0 283.8l0 190.46 0 0 3.61 0c43.06,0 76.06,-8.8 99.31,-26.24 23.1,-17.44 34.73,-42.27 34.73,-74.49 0,-28.91 -11.63,-51.07 -35.04,-66.47 -23.26,-15.56 -56.57,-23.26 -99.94,-23.26l-2.67 0zm811.96 330c-113.46,0 -206.33,-34.73 -278.62,-104.03 -72.29,-69.3 -108.43,-158.56 -108.43,-267.46 0,-109.21 36.14,-198.63 108.43,-268.09 72.29,-69.61 165.16,-104.34 278.62,-104.34 113.77,0 206.8,34.73 278.93,104.34 72.13,69.46 108.11,158.87 108.11,268.09 0,108.9 -35.99,198.16 -108.11,267.46 -72.13,69.3 -165.16,104.03 -278.93,104.03zm107.49 -140.49c21.84,-20.27 39.6,-51.07 53.27,-92.56 13.83,-41.49 20.74,-84.7 20.74,-129.49 0,-77.16 -27.03,-138.44 -80.93,-183.39 -53.9,-45.1 -123.2,-64.27 -208.06,-57.51 -21.84,20.27 -39.6,51.23 -53.27,92.87 -13.83,41.64 -20.74,85.01 -20.74,130.11 0,76.84 27.03,137.81 81.09,182.76 54.06,44.94 123.36,63.96 207.9,57.2zm490.13 -441.57c2.2,-31.59 1.57,-58.77 -1.89,-81.56 -3.3,-22.63 -9.9,-46.04 -19.8,-69.93l202.56 0 0 0 363.16 0c-9.27,22.47 -15.87,44.94 -19.64,67.73 -3.93,22.63 -5.81,50.6 -5.81,83.76l0 443.46 101.04 0c-4.09,10.37 -7.39,28.13 -10.21,53.11 -2.67,24.99 -4.09,50.44 -4.09,76.06l0 25.46c0,25.61 1.41,51.07 4.09,76.06 2.83,24.99 6.13,42.74 10.06,53.11l-218.9 0c4.09,-10.37 7.39,-28.13 10.21,-53.11 2.67,-25.14 4.09,-50.44 4.09,-76.21l0 -25.46 0 -3.61 -381.86 0 0.47 3.61 0 25.46c0,25.77 1.41,51.07 4.09,76.21 2.83,24.99 6.13,42.74 10.21,53.11l-219.37 0c3.93,-10.37 7.23,-28.13 10.06,-53.11 2.67,-24.99 4.09,-50.44 4.09,-76.06l0 -25.46c0,-25.3 -1.41,-50.6 -4.09,-75.59 -2.83,-24.99 -6.13,-42.9 -10.21,-53.59l97.59 0c11.16,-31.27 21.53,-68.51 31.11,-111.41 22.16,-99.79 36.61,-210.41 43.06,-332.04zm328.12 -26.09l0 0 -137.03 0 0 0c-5.19,131.21 -19.8,250.49 -43.69,357.97 -9.9,42.43 -19.8,79.67 -30.01,111.57l0 0 210.73 0 0 0 0 -469.54zm745.33 443.46l0 -417.37c0,-33.16 -1.89,-61.13 -5.81,-83.76 -3.77,-22.79 -10.37,-45.26 -19.64,-67.73l120.53 0 120.84 0c-9.27,22.31 -15.87,44.94 -19.64,67.57 -3.93,22.79 -5.81,50.6 -5.81,83.76l0 129.64 0 0 210.26 0 0 0 0 -129.64c0,-33.16 -1.89,-60.97 -5.82,-83.76 -3.77,-22.63 -10.37,-45.26 -19.64,-67.57l120.53 0 120.84 0c-9.27,22.47 -15.87,44.94 -19.64,67.73 -3.93,22.63 -5.82,50.6 -5.82,83.76l0 417.37c0,33.16 1.89,61.13 5.82,83.76 3.77,22.79 10.37,45.26 19.64,67.73l-120.37 0 -121 0c9.27,-22.47 15.87,-44.94 19.64,-67.73 3.93,-22.63 5.82,-50.6 5.82,-83.76l0 -143.63 0 0 -210.26 0 0 0 0 143.63c0,33.16 1.89,61.13 5.81,83.76 3.77,22.79 10.37,45.26 19.64,67.73l-120.37 0 -121 0c9.27,-22.47 15.87,-44.94 19.96,-67.73 3.61,-22.63 5.5,-50.6 5.5,-83.76zm765.13 0l0 -417.37c0,-33.16 -1.89,-61.13 -5.81,-83.76 -3.77,-22.79 -10.37,-45.26 -19.64,-67.73l120.53 0 120.84 0c-9.27,22.31 -15.87,44.94 -19.64,67.57 -3.93,22.79 -5.81,50.6 -5.81,83.76l0 129.64 0 0 210.26 0 0 0 0 -129.64c0,-33.16 -1.89,-60.97 -5.82,-83.76 -3.77,-22.63 -10.37,-45.26 -19.64,-67.57l120.53 0 120.84 0c-9.27,22.47 -15.87,44.94 -19.64,67.73 -3.93,22.63 -5.82,50.6 -5.82,83.76l0 417.37c0,33.16 1.89,61.13 5.82,83.76 3.77,22.79 10.37,45.26 19.64,67.73l-120.37 0 -121 0c9.27,-22.47 15.87,-44.94 19.64,-67.73 3.93,-22.63 5.82,-50.6 5.82,-83.76l0 -143.63 0 0 -210.26 0 0 0 0 143.63c0,33.16 1.89,61.13 5.81,83.76 3.77,22.79 10.37,45.26 19.64,67.73l-120.37 0 -121 0c9.27,-22.47 15.87,-44.94 19.96,-67.73 3.61,-22.63 5.5,-50.6 5.5,-83.76zm1276.16 0l0 -417.37c0,-33.16 1.89,-61.13 5.81,-83.76 3.77,-22.79 10.37,-45.26 19.64,-67.73l-120.21 0 0 0 -129.96 0c-88.79,0 -157.3,18.54 -205.54,55.79 -48.24,37.09 -72.29,89.89 -72.29,158.4 0,65.37 26.71,117.39 80.14,156.04 18.7,13.83 39.76,24.83 63.01,33.16l0 0 -115.03 165.63c-23.41,33.47 -45.26,61.44 -65.84,84.23 -20.59,22.63 -44.16,44.94 -70.87,67.1l197.22 0c12.57,0 33.94,-16.97 64.11,-51.07 30.17,-33.94 60.81,-75.59 92.09,-124.61l67.26 -108.11 0 0 0 132.47c0,33.16 -1.89,60.97 -5.81,83.76 -3.77,22.63 -10.37,45.26 -19.64,67.57l120.53 0 120.84 0c-9.27,-22.47 -15.87,-44.94 -19.96,-67.73 -3.61,-22.63 -5.5,-50.6 -5.5,-83.76zm-190.46 -246.4l0 0 -5.97 0c-34.89,0 -63.49,-9.74 -85.96,-29.07 -22.31,-19.33 -33.47,-44.31 -33.47,-74.8 0,-27.03 10.53,-49.19 31.74,-66.47 21.06,-17.13 48.24,-25.77 81.24,-25.77l12.41 0 0 0 0 196.12zm-2212.11 246.4l0 -417.37c0,-32.84 -1.89,-60.66 -5.81,-83.44 -3.77,-22.63 -10.37,-45.41 -19.64,-68.04l120.53 0 120.84 0c-9.27,22.47 -15.87,44.94 -19.64,67.73 -3.93,22.63 -5.81,50.6 -5.81,83.76l0 417.37c0,33.16 1.89,61.13 5.81,83.76 3.77,22.79 10.37,45.26 19.64,67.73l-120.37 0 -121 0c9.27,-22.47 15.87,-44.94 19.96,-67.73 3.61,-22.63 5.5,-50.6 5.5,-83.76z"/>
   <path class="fil1" d="M2388.95 1697.48c-5.31,12.52 -9.1,23.2 -11.36,32.06 -2.2,8.79 -3.3,17.77 -3.3,26.81l-47.94 0 -47.94 0c5.74,-5.74 11.18,-13.01 16.37,-21.8 5.19,-8.85 11.18,-21.19 18.01,-37.01l9.89 -23.82 0 0 -59.48 -138.44c-4.4,-10.38 -9.4,-19.97 -15.02,-28.82 -5.62,-8.79 -13.07,-18.81 -22.35,-30.04l51.6 0 51.78 0c-0.67,6.78 -0.79,12.58 -0.3,17.4 0.43,4.88 1.65,9.83 3.54,14.96l27.42 75.48 0 0 0 0 31.39 -75.48c2.38,-5.74 3.97,-10.99 4.7,-15.82 0.79,-4.82 0.92,-10.38 0.49,-16.55l45.98 0 45.98 0c-5.01,6.29 -9.89,13.86 -14.66,22.72 -4.76,8.79 -10.44,20.89 -16.98,36.15l-67.84 162.19zm104.61 0.06l0 -76.58c0,-13.31 -0.67,-24.43 -2.02,-33.22 -1.34,-8.85 -3.72,-17.34 -7.14,-25.59l42.87 0 0 0 40.91 0c26.02,0 46.29,4.27 60.94,12.88 14.66,8.61 21.98,20.52 21.98,35.78 0,15.51 -7.21,27.54 -21.62,35.97 -2.87,1.71 -5.92,3.17 -9.16,4.52l0 0c5.98,2.14 11.3,4.64 15.94,7.45 15.51,9.77 23.27,23.69 23.27,41.65 0,17.89 -7.63,31.69 -22.96,41.4 -15.33,9.71 -37.07,14.53 -65.34,14.53l-43.97 0 0 0 -42.87 0c3.42,-8.24 5.8,-16.73 7.21,-25.59 1.28,-8.79 1.95,-19.91 1.95,-33.22zm67.42 -102.41l0 44.7 0 0 2.32 0c8.18,0 14.53,-2.02 18.93,-6.11 4.4,-4.09 6.6,-9.89 6.6,-17.4 0,-6.84 -2.08,-12.09 -6.23,-15.69 -4.21,-3.66 -10.14,-5.5 -17.89,-5.5l-3.72 0zm0 76.21l0 49.83 0.55 0c9.28,0 16.49,-2.26 21.56,-6.84 5.07,-4.58 7.57,-11.05 7.57,-19.48 0,-7.51 -2.5,-13.25 -7.51,-17.34 -5.01,-4.09 -12.15,-6.17 -21.43,-6.17l-0.73 0zm168.12 89.03c-17.22,0 -31.39,-4.89 -42.38,-14.59 -10.99,-9.77 -16.49,-22.29 -16.49,-37.56 0,-14.59 5.25,-27.54 15.82,-38.96 10.5,-11.42 25.53,-20.27 45.01,-26.62l35.17 -11.42 0 0c-0.24,-8.49 -2.93,-15.08 -8.06,-19.79 -5.13,-4.76 -12.7,-7.14 -22.65,-7.14 -9.16,0 -16.73,0.61 -22.66,1.77 -5.98,1.16 -13.07,3.42 -21.43,6.84l12.52 -45.98c11.79,-3.54 21.56,-5.86 29.31,-7.02 7.75,-1.16 17.53,-1.77 29.31,-1.77 21.8,0 39.08,5.92 51.91,17.71 12.76,11.79 19.17,27.66 19.17,47.69l0 74.01c0,13.37 0.67,24.43 2.02,33.22 1.34,8.85 3.72,17.34 7.14,25.59l-37.56 0 -37.62 0 0 0 0 -20.82 0 0 -31.57 24.67 -6.96 0.18zm37.13 -48.3l0 -35.97 0 0 -29.01 0c-1.77,0 -3.66,2.08 -5.68,6.17 -2.02,4.15 -2.99,7.94 -2.99,11.36 0,7.02 1.83,12.27 5.56,15.75 3.79,3.48 9.34,5.19 16.85,5.19 6.05,-0.12 11.11,-0.98 15.27,-2.5zm171.47 -14.59c0,12.52 0.79,23.2 2.32,32 1.53,8.85 4.15,17.77 7.94,26.87l-43.97 0 -43.97 0c3.79,-9.16 6.41,-18.2 7.94,-26.99 1.53,-8.85 2.32,-19.42 2.32,-31.81l0 -76.58c0,-12.27 -0.79,-22.78 -2.32,-31.63 -1.53,-8.79 -4.15,-17.89 -7.94,-27.17l77.62 0 76.52 0 -10.14 24.79 -10.26 25.04c-9.53,-3.24 -22.53,-6.11 -39.02,-8.67 -5.8,-0.92 -11.48,-1.59 -16.98,-1.95l-0.06 0 0 96.12zm143.08 62.9c-17.22,0 -31.39,-4.89 -42.38,-14.59 -10.99,-9.77 -16.49,-22.29 -16.49,-37.56 0,-14.59 5.25,-27.54 15.82,-38.96 10.5,-11.42 25.53,-20.27 45.01,-26.62l35.17 -11.42 0 0c-0.24,-8.49 -2.93,-15.08 -8.06,-19.79 -5.13,-4.76 -12.7,-7.14 -22.65,-7.14 -9.16,0 -16.73,0.61 -22.66,1.77 -5.98,1.16 -13.07,3.42 -21.43,6.84l12.52 -45.98c11.79,-3.54 21.56,-5.86 29.31,-7.02 7.75,-1.16 17.53,-1.77 29.31,-1.77 21.8,0 39.08,5.92 51.91,17.71 12.76,11.79 19.17,27.66 19.17,47.69l0 74.01c0,13.37 0.67,24.43 2.02,33.22 1.34,8.85 3.72,17.34 7.14,25.59l-37.56 0 -37.62 0 0 0 0 -20.82 0 0 -31.57 24.67 -6.96 0.18zm37.13 -48.3l0 -35.97 0 0 -29.01 0c-1.77,0 -3.66,2.08 -5.68,6.17 -2.02,4.15 -2.99,7.94 -2.99,11.36 0,7.02 1.83,12.27 5.56,15.75 3.79,3.48 9.34,5.19 16.85,5.19 6.05,-0.12 11.11,-0.98 15.27,-2.5z"/>
   <path class="fil1" d="M2020.35 3376.8l0 -162.92c0,-12.94 -0.74,-23.86 -2.27,-32.69 -1.47,-8.89 -4.05,-17.67 -7.67,-26.44l84.16 0 0 0 121.27 0 0 0 -13.86 30.43 -13.8 30.67c-6.69,-3.19 -17.67,-6.07 -32.82,-8.46 -15.15,-2.45 -29.5,-3.68 -43,-3.68l-17.67 0 0 0 0 52.63 0 0 18.89 0c36.93,0 65.39,7.79 85.39,23.37 20.06,15.58 30.06,37.72 30.06,66.49 0,28.77 -10.24,50.91 -30.79,66.43 -20.49,15.52 -49.62,23.31 -87.41,23.31l-53.43 0 -46.99 0c3.62,-8.77 6.19,-17.54 7.79,-26.44 1.41,-8.83 2.15,-19.75 2.15,-32.69zm74.34 -65.63l0 69.93 0 0c16.99,-0.25 30.3,-3.5 39.81,-9.88 9.51,-6.32 14.29,-15.34 14.29,-27.17 0,-10.49 -4.36,-18.59 -13,-24.29 -8.71,-5.71 -21.04,-8.59 -36.99,-8.59l-4.11 0zm268.06 128.82c-33.18,0 -59.38,-9.02 -78.58,-27.11 -19.2,-18.03 -28.77,-42.82 -28.77,-74.28 0,-29.93 8.53,-54.35 25.52,-73.3 16.99,-18.95 38.83,-28.46 65.57,-28.46l-0.55 0c25.76,0 45.82,8.1 60.36,24.23 14.48,16.13 21.72,38.52 21.72,67.23 0,7.79 -0.74,15.21 -2.21,22.27l0 0 -102.99 0 0 0c2.39,10.18 6.32,18.77 11.72,25.89 9.69,12.45 23.86,18.65 42.51,18.65 8.65,0 17.48,-1.41 26.56,-4.29 9.02,-2.82 17.24,-6.87 24.54,-11.96l-23.68 57.11c-11.04,1.66 -19.2,2.76 -24.48,3.25 -5.27,0.55 -10.98,0.8 -17.24,0.8zm6.81 -127.34l0 0 -0.18 -6.62c0,-9.32 -2.09,-16.5 -6.19,-21.53 -4.17,-5.03 -10,-7.55 -17.54,-7.55 -8.4,0 -14.78,3.8 -19.2,11.47 -3.37,5.77 -5.4,13.8 -6.13,24.23l0 0 49.26 0zm135.99 127.34c-11.41,0 -21.16,-0.8 -29.32,-2.39 -8.1,-1.6 -18.4,-4.72 -30.85,-9.39l0 -48.21c7.97,7.61 15.34,13 22.08,16.19 6.75,3.19 14.05,4.78 21.96,4.78 8.22,0 14.78,-2.33 19.63,-6.93 4.91,-4.66 7.36,-10.86 7.36,-18.71 0,-8.89 -2.7,-15.46 -8.03,-19.69l-4.29 -2.51c-3.25,-1.9 -6.87,-2.94 -10.98,-3.19 -4.05,-0.25 -7.42,0.31 -10.18,1.78l0.18 -34.41c2.52,1.1 5.7,1.29 9.51,0.61 3.87,-0.61 7.24,-1.9 10.24,-3.8l0.55 -0.37c5.95,-3.86 8.96,-9.14 8.96,-15.89 0,-7.61 -2.09,-13.13 -6.19,-16.68 -4.11,-3.56 -10.55,-5.34 -19.38,-5.34 -6.75,0 -13,1.29 -18.65,3.93 -5.71,2.58 -11.78,7.05 -18.34,13.37l0 -48.21c12.08,-3.25 21.59,-5.4 28.52,-6.5 6.93,-1.04 14.97,-1.59 24.05,-1.59 24.35,0 43.61,4.6 57.84,13.74 14.23,9.14 21.35,21.53 21.35,37.23 0,15.21 -5.95,27.23 -17.85,36.07 -6.99,5.28 -15.58,8.96 -25.76,11.1l0 0c11.23,2.27 20.86,6.32 28.77,12.02 12.57,9.39 18.89,21.96 18.89,37.91 0,16.87 -7.24,30.24 -21.65,40.18 -14.42,9.94 -33.86,14.91 -58.4,14.91zm186.66 -4.05l-43.06 0 -43.06 0c3.43,-8.28 5.83,-16.81 7.18,-25.7 1.35,-8.83 2.02,-20 2.02,-33.37l0 -76.92c0,-13.37 -0.68,-24.54 -2.02,-33.37 -1.35,-8.89 -3.74,-17.42 -7.18,-25.7l98.21 0 0 0 98.33 0c-3.43,8.28 -5.83,16.81 -7.18,25.7 -1.35,8.83 -2.02,20 -2.02,33.37l0 76.92c0,13.37 0.68,24.54 2.02,33.37 1.35,8.89 3.74,17.42 7.18,25.7l-43.06 0 -43.06 0c3.43,-8.28 5.83,-16.81 7.18,-25.7 1.35,-8.83 2.02,-20 2.02,-33.37l0 -98.08 0 0 -42.69 0 0 0 0 98.08c0,13.37 0.67,24.54 1.96,33.37 1.41,8.89 3.8,17.42 7.24,25.7zm237.2 4.05c-33.18,0 -59.38,-9.02 -78.58,-27.11 -19.2,-18.03 -28.77,-42.82 -28.77,-74.28 0,-29.93 8.53,-54.35 25.52,-73.3 16.99,-18.95 38.83,-28.46 65.57,-28.46l-0.55 0c25.76,0 45.82,8.1 60.36,24.23 14.48,16.13 21.72,38.52 21.72,67.23 0,7.79 -0.74,15.21 -2.21,22.27l0 0 -102.99 0 0 0c2.39,10.18 6.32,18.77 11.72,25.89 9.69,12.45 23.86,18.65 42.51,18.65 8.65,0 17.48,-1.41 26.56,-4.29 9.02,-2.82 17.24,-6.87 24.54,-11.96l-23.68 57.11c-11.04,1.66 -19.2,2.76 -24.48,3.25 -5.27,0.55 -10.98,0.8 -17.24,0.8zm6.81 -127.34l0 0 -0.18 -6.62c0,-9.32 -2.09,-16.5 -6.19,-21.53 -4.17,-5.03 -10,-7.55 -17.54,-7.55 -8.4,0 -14.78,3.8 -19.2,11.47 -3.37,5.77 -5.4,13.8 -6.13,24.23l0 0 49.26 0zm154.95 64.22c0,13.37 0.68,24.54 2.02,33.37 1.35,8.89 3.74,17.42 7.18,25.7l-43.06 0 -43.06 0c3.43,-8.16 5.83,-16.62 7.18,-25.52 1.35,-8.83 2.02,-20.06 2.02,-33.55l0 -76.92c0,-13.37 -0.68,-24.54 -2.02,-33.37 -1.35,-8.89 -3.74,-17.42 -7.18,-25.7l43.06 0 43.06 0c-3.43,8.28 -5.83,16.81 -7.18,25.7 -1.35,8.83 -2.02,20 -2.02,33.37l0 10.06 0 0 43.67 -51.71c3.62,-4.17 6.26,-7.61 7.85,-10.24 1.6,-2.64 2.58,-5.03 2.94,-7.18l43.43 0 43.43 0c-3.25,1.41 -10.8,7.91 -22.76,19.38 -11.9,11.53 -30.85,30.67 -56.86,57.48l-11.47 12.02 0 0 24.78 29.32c22.88,26.68 39.56,45.82 50.05,57.35 10.49,11.59 17.18,18.1 20,19.51l-46.68 0 -46.74 0c-0.49,-4.17 -1.6,-8.1 -3.44,-11.78 -1.78,-3.62 -4.54,-7.79 -8.22,-12.45l-40.06 -50.85 0.06 0 0 16.01zm204.51 63.12c-17.3,0 -31.53,-4.91 -42.57,-14.66 -11.04,-9.81 -16.56,-22.39 -16.56,-37.72 0,-14.66 5.27,-27.66 15.89,-39.14 10.55,-11.47 25.64,-20.36 45.21,-26.74l35.33 -11.47 0 0c-0.25,-8.53 -2.94,-15.15 -8.1,-19.87 -5.15,-4.78 -12.76,-7.18 -22.76,-7.18 -9.2,0 -16.81,0.61 -22.76,1.78 -6.01,1.16 -13.13,3.43 -21.53,6.87l12.58 -46.19c11.84,-3.56 21.65,-5.89 29.44,-7.05 7.79,-1.17 17.6,-1.78 29.44,-1.78 21.9,0 39.26,5.95 52.14,17.79 12.82,11.84 19.26,27.79 19.26,47.91l0 74.34c0,13.43 0.67,24.54 2.02,33.37 1.35,8.89 3.74,17.42 7.18,25.7l-37.72 0 -37.79 0 0 0 0 -20.92 0 0 -31.71 24.78 -6.99 0.18zm37.3 -48.52l0 -36.13 0 0 -29.14 0c-1.78,0 -3.68,2.09 -5.71,6.2 -2.02,4.17 -3.01,7.97 -3.01,11.41 0,7.05 1.84,12.33 5.58,15.83 3.8,3.5 9.39,5.21 16.93,5.21 6.07,-0.12 11.16,-0.98 15.34,-2.52z"/>
   <path class="fil1" d="M576.12 2502.24c0,11.36 0.65,20.94 1.99,28.69 1.29,7.81 3.55,15.5 6.73,23.2l-41.24 0 -41.45 0c3.18,-7.7 5.44,-15.4 6.73,-23.2 1.35,-7.75 1.99,-17.33 1.99,-28.69l0 -142.98c0,-11.36 -0.65,-20.94 -1.99,-28.69 -1.29,-7.81 -3.55,-15.5 -6.73,-23.2l41.29 0 41.4 0c-3.18,7.7 -5.44,15.4 -6.73,23.2 -1.35,7.75 -1.99,17.33 -1.99,28.69l0 38.6 0 0 56.74 -73.48c3.18,-3.88 5.49,-7.05 6.94,-9.58 1.51,-2.53 2.42,-5.01 2.85,-7.43l41.83 0 41.99 0c-5.38,3.34 -11.95,8.94 -19.81,16.69 -7.81,7.81 -18.63,19.54 -32.41,35.21l-53.46 60.67 0 0 64.65 82.31c11.9,14.86 21.42,26.16 28.64,33.92 7.21,7.81 13.78,13.78 19.65,17.98l-46.89 0 -47.05 0c0.11,-2.85 -0.86,-6.19 -2.85,-10.12 -1.99,-3.88 -5.44,-9.1 -10.28,-15.72l-50.66 -71.92 0.11 0 0 45.87zm239.4 55.45c-25.36,0 -46.14,-7.64 -62.34,-22.93 -16.2,-15.23 -24.33,-34.88 -24.33,-58.95 0,-28.26 8.88,-51.41 26.7,-69.39 17.77,-18.03 40.59,-27.02 68.48,-27.02 25.46,0 46.3,7.64 62.45,22.99 16.15,15.34 24.22,35.05 24.22,59.22 0,28.16 -8.88,51.2 -26.59,69.18 -17.77,17.93 -40.59,26.92 -68.58,26.92zm16.2 -34.24c5.33,-5.06 9.74,-11.79 13.14,-20.24 3.39,-8.45 5.11,-16.85 5.11,-25.14 0,-15.5 -4.47,-29.23 -13.35,-41.29 -8.94,-12.06 -20.46,-19.76 -34.51,-23.15 -4.09,3.88 -7.43,10.07 -9.96,18.57 -2.58,8.56 -3.88,17.55 -3.88,27.13 0,15.77 4.09,29.66 12.22,41.61 8.13,11.95 18.52,19.43 31.22,22.5zm160.48 -21.16c0,11.74 0.59,21.53 1.78,29.29 1.18,7.81 3.28,15.29 6.3,22.56l-39.08 0 -39.08 0c3.01,-7.27 5.11,-14.75 6.3,-22.56 1.19,-7.75 1.78,-17.55 1.78,-29.29l0 -102.82 -9.31 -9.91c-7.43,-7.81 -9.47,-10.01 -5.98,-6.62l34.94 0 34.94 0c0.86,5.06 2.15,9.26 3.98,12.7 1.78,3.39 4.36,6.73 7.75,10.01l41.72 41.18 0 0 0 0 37.36 -41.18c3.88,-4.2 6.73,-7.97 8.51,-11.36 1.78,-3.39 2.91,-7.16 3.34,-11.36l32.25 0 32.41 0c-4.52,10.93 -7.7,22.61 -9.53,35.1 -1.83,12.44 -2.75,28.37 -2.75,47.8l0 36.44c0,11.74 0.59,21.53 1.78,29.29 1.18,7.81 3.28,15.29 6.3,22.56l-37.79 0 -37.79 0c3.02,-7.27 5.11,-14.75 6.3,-22.56 1.18,-7.75 1.78,-17.55 1.78,-29.29l0 -39.24 0.27 0 -44.2 48.45 -0.05 0 -44.14 -47.05 -0.05 0 0 37.84zm275.57 -133.02c0,-11.79 -0.59,-21.53 -1.78,-29.34 -1.18,-7.75 -3.28,-15.29 -6.3,-22.56l38.6 -4.31 38.6 -4.42c-3.55,7.05 -6.03,16.04 -7.48,26.97 -1.45,10.98 -2.21,26.22 -2.21,45.81l0 21.75 0 0 21.16 -21.26c5.33,-1.67 10.93,-2.53 16.74,-2.53 17.12,0 31.12,8.34 42.04,24.98 10.87,16.64 16.31,38.06 16.31,64.33 0,26.16 -5.44,47.53 -16.31,64.12 -10.93,16.58 -24.98,24.87 -42.21,24.87 -14.75,0 -27.35,-4.31 -37.74,-12.92l0 0 0 11.68c0,10.01 0.75,18.9 2.31,26.7 1.51,7.75 4.2,16.2 8.02,25.25l-39.57 0 -39.57 0c3.39,-8.24 5.81,-16.2 7.21,-24.01 1.45,-7.81 2.15,-17.12 2.15,-27.94l0 -11.84 0 0c-10.28,8.72 -22.93,13.08 -37.84,13.08 -17.07,0 -31.06,-8.29 -41.99,-24.87 -10.93,-16.58 -16.42,-37.95 -16.42,-64.12 0,-26.27 5.44,-47.7 16.31,-64.33 10.93,-16.63 24.87,-24.98 41.94,-24.98 6.08,-0.11 11.74,0.81 17.01,2.69l21 21.1 0 0 0 -33.91zm101.74 101.26l0 0c0,-17.5 -2.05,-30.63 -6.08,-39.3 -4.04,-8.72 -10.17,-13.08 -18.41,-13.08 -7.16,0 -13.08,3.18 -17.82,9.47l0 0 0 89.96 0 0c4.63,3.28 10.55,5.01 17.82,5.22 7.16,0 13.03,-4.9 17.6,-14.64 4.58,-9.74 6.89,-22.29 6.89,-37.63zm-144.06 0l0 0c0,17.44 2.05,30.52 6.08,39.19 4.04,8.72 10.17,13.08 18.41,13.08 7.64,-0.11 13.62,-1.99 17.82,-5.65l0 0 0 -89.04 0 0c-4.52,-6.62 -10.5,-9.96 -17.82,-9.96 -7.16,0 -13.03,4.9 -17.6,14.64 -4.58,9.74 -6.89,22.34 -6.89,37.74zm299.26 87.16c-25.36,0 -46.14,-7.64 -62.34,-22.93 -16.2,-15.23 -24.33,-34.88 -24.33,-58.95 0,-28.26 8.88,-51.41 26.7,-69.39 17.77,-18.03 40.59,-27.02 68.48,-27.02 25.46,0 46.3,7.64 62.45,22.99 16.15,15.34 24.22,35.05 24.22,59.22 0,28.16 -8.88,51.2 -26.59,69.18 -17.77,17.93 -40.59,26.92 -68.58,26.92zm16.2 -34.24c5.33,-5.06 9.74,-11.79 13.14,-20.24 3.39,-8.45 5.11,-16.85 5.11,-25.14 0,-15.5 -4.47,-29.23 -13.35,-41.29 -8.94,-12.06 -20.46,-19.76 -34.51,-23.15 -4.09,3.88 -7.43,10.07 -9.96,18.57 -2.58,8.56 -3.88,17.55 -3.88,27.13 0,15.77 4.09,29.66 12.22,41.61 8.13,11.95 18.52,19.43 31.22,22.5zm105.57 -88.61c0,-11.79 -0.59,-21.59 -1.78,-29.34 -1.18,-7.81 -3.28,-15.29 -6.3,-22.56l33.75 0 33.75 0 0 0 0 24.12 0 0 22.18 -25.95c4.84,-1.13 9.85,-1.72 14.97,-1.72 20.24,0 36.77,8.08 49.58,24.17 12.81,16.15 19.22,36.82 19.22,62.12 0,27.02 -7.27,49.1 -21.86,66.27 -14.59,17.17 -33.38,25.73 -56.36,25.73 -10.17,0 -19.43,-2.05 -27.72,-6.14l0 0 0 4.9c0,9.96 0.75,18.9 2.32,26.65 1.51,7.81 4.2,16.26 8.02,25.3l-39.57 0 -39.57 0c3.39,-8.18 5.81,-16.2 7.21,-23.96 1.45,-7.81 2.15,-17.06 2.15,-27.94l0 -121.66zm73.37 82.8c9.37,0 17.07,-4.31 22.99,-12.97 5.98,-8.67 8.94,-19.81 8.94,-33.48 0,-15.5 -2.15,-27.13 -6.51,-34.94 -4.31,-7.75 -10.82,-11.63 -19.49,-11.63 -7.38,0.11 -14,3.12 -19.86,9.04l0 0 0 81.77 0 0c4.2,1.35 8.83,2.1 13.94,2.21zm169.79 -15.34l0 -85.11 0 0c-8.4,0.43 -15.88,1.02 -22.5,1.78 -15.83,1.88 -29.12,5.06 -39.84,9.53l7.21 -22.77 7.32 -22.77 0 0 77.47 0 0 0 90.82 0 0 0 -5.87 21.8 -6.08 21.8c-6.46,-2.75 -17.6,-5.17 -33.43,-7.32l-15.67 -1.72 0 0 0 84.79c0,11.04 0.7,20.4 2.05,28.21 1.35,7.75 3.66,15.66 7,23.63l-38.76 0 -38.76 0c3.34,-7.97 5.65,-15.88 7,-23.63 1.35,-7.81 2.05,-17.17 2.05,-28.21z"/>
  </g>
 </g>
</svg>
